<svg width="250" height="60" viewBox="0 0 250 60" fill="none" xmlns="http://www.w3.org/2000/svg">
<path fill-rule="evenodd" clip-rule="evenodd" d="M51.3206 48.4716V11.7904H11.5209V48.4716H51.3206ZM5.49863 54.4978V56.9869C5.49863 58.651 6.84678 60 8.50979 60C10.1728 60 11.5209 58.651 11.5209 56.9869V54.4978H51.3206H57.3429V48.4716V11.7904H59.8304C61.4934 11.7904 62.8415 10.4414 62.8415 8.77729C62.8415 7.1132 61.4934 5.76419 59.8304 5.76419H57.3429V3.0131C57.3429 1.34901 55.9948 0 54.3317 0C52.6687 0 51.3206 1.34901 51.3206 3.0131V5.76419H11.5209H5.49863V11.7904V48.4716H3.01116C1.34814 48.4716 0 49.8206 0 51.4847C0 53.1488 1.34814 54.4978 3.01116 54.4978H5.49863ZM13.3538 13.6245H34.5628V29.083H13.3538V13.6245ZM49.4877 31.179H28.2787V46.6376H49.4877V31.179ZM36.3957 13.6245H49.4877V29.083H36.3957V13.6245ZM26.4458 31.179H13.3538V46.6376H26.4458V31.179Z" fill="url(#paint0_linear_820_925)"/>
<path d="M101.463 45.4814H93.4079L91.3143 38.6959H81.0288L78.8898 45.4814H71.0164L81.575 15.4246H90.9503L101.463 45.4814ZM82.4852 33.3676H89.858L86.1716 21.2083L82.4852 33.3676Z" fill="white"/>
<path d="M112.785 39.4245H127.849V45.4814H104.957V15.4246H112.785V39.4245Z" fill="white"/>
<path d="M140.162 39.4245H155.227V45.4814H132.334V15.4246H140.162V39.4245Z" fill="white"/>
<path d="M172.206 14.9692C175.24 14.9692 177.849 15.5916 180.034 16.8364C182.249 18.0508 183.948 19.8117 185.131 22.1191C186.314 24.4265 186.906 27.2045 186.906 30.453C186.906 33.7016 186.314 36.4796 185.131 38.7869C183.948 41.0943 182.249 42.8704 180.034 44.1152C177.849 45.3296 175.24 45.9368 172.206 45.9368C169.172 45.9368 166.547 45.3296 164.332 44.1152C162.118 42.8704 160.418 41.0943 159.235 38.7869C158.052 36.4796 157.46 33.7016 157.46 30.453C157.46 27.2045 158.052 24.4265 159.235 22.1191C160.418 19.8117 162.118 18.0508 164.332 16.8364C166.547 15.5916 169.172 14.9692 172.206 14.9692ZM172.206 21.1172C170.749 21.1172 169.521 21.4664 168.519 22.1646C167.518 22.8629 166.76 23.9104 166.244 25.3069C165.728 26.6732 165.47 28.3885 165.47 30.453C165.47 32.4872 165.728 34.2025 166.244 35.5991C166.76 36.9957 167.518 38.0431 168.519 38.7414C169.521 39.4397 170.749 39.7888 172.206 39.7888C173.662 39.7888 174.876 39.4397 175.847 38.7414C176.848 38.0431 177.606 36.9957 178.122 35.5991C178.638 34.2025 178.896 32.4872 178.896 30.453C178.896 28.3885 178.638 26.6732 178.122 25.3069C177.606 23.9104 176.848 22.8629 175.847 22.1646C174.876 21.4664 173.662 21.1172 172.206 21.1172Z" fill="white"/>
<path d="M218.979 15.4246L208.329 45.4814H199.136L188.441 15.4246H196.678L202.185 33.5953L203.824 39.5156L205.417 33.6864L211.014 15.4246H218.979Z" fill="white"/>
<path d="M236.893 15.4246C240.473 15.4246 243.249 16.2747 245.221 17.9749C247.224 19.6447 248.225 21.8762 248.225 24.6694C248.225 27.7358 247.239 30.0735 245.267 31.6826C243.295 33.2917 240.519 34.0963 236.938 34.0963L236.21 34.5061H230.248V45.4814H222.557V15.4246H236.893ZM235.801 28.9502C237.318 28.9502 238.455 28.6466 239.214 28.0394C239.972 27.4322 240.352 26.4606 240.352 25.1248C240.352 23.8193 239.972 22.8629 239.214 22.2557C238.455 21.6485 237.318 21.3449 235.801 21.3449H230.248V28.9502H235.801ZM240.397 30.5896L250 45.4814H241.353L233.662 32.3202L240.397 30.5896Z" fill="white"/>
<defs>
<linearGradient id="paint0_linear_820_925" x1="31.4208" y1="0" x2="31.4208" y2="60" gradientUnits="userSpaceOnUse">
<stop stop-color="#ED1E79"/>
<stop offset="1" stop-color="#FBB03B"/>
</linearGradient>
</defs>
</svg>
