<svg width="170" height="42" viewBox="0 0 170 42" fill="none" xmlns="http://www.w3.org/2000/svg">
<path fill-rule="evenodd" clip-rule="evenodd" d="M34.898 33.5525V8.62533H7.83425V33.5525H34.898ZM3.73907 37.6477V39.3391C3.73907 40.47 4.65581 41.3867 5.78666 41.3867C6.91751 41.3867 7.83425 40.47 7.83425 39.3391V37.6477H34.898H38.9932V33.5525V8.62533H40.6847C41.8155 8.62533 42.7323 7.7086 42.7323 6.57775C42.7323 5.4469 41.8155 4.53016 40.6847 4.53016H38.9932V2.66062C38.9932 1.52977 38.0764 0.613037 36.9456 0.613037C35.8147 0.613037 34.898 1.52977 34.898 2.66062V4.53016H7.83425H3.73907V8.62533V33.5525H2.04759C0.916736 33.5525 0 34.4692 0 35.6001C0 36.7309 0.916735 37.6477 2.04759 37.6477H3.73907ZM9.0806 9.87169H23.5027V20.3767H9.0806V9.87169ZM33.6516 21.8011H19.2295V32.3061H33.6516V21.8011ZM24.7491 9.87169H33.6516V20.3767H24.7491V9.87169ZM17.9832 21.8011H9.0806V32.3061H17.9832V21.8011Z" fill="url(#paint0_linear_816_370)"/>
<path d="M68.995 31.5203H63.5172L62.0936 26.9091H55.0995L53.645 31.5203H48.291L55.4709 11.0949H61.8461L68.995 31.5203ZM56.0898 23.2882H61.1033L58.5966 15.0252L56.0898 23.2882Z" fill="white"/>
<path d="M76.6934 27.4043H86.9371V31.5203H71.3704V11.0949H76.6934V27.4043Z" fill="white"/>
<path d="M95.3103 27.4043H105.554V31.5203H89.9873V11.0949H95.3103V27.4043Z" fill="white"/>
<path d="M117.1 10.7854C119.163 10.7854 120.937 11.2084 122.423 12.0543C123.929 12.8795 125.084 14.0762 125.889 15.6442C126.694 17.2122 127.096 19.1 127.096 21.3076C127.096 23.5152 126.694 25.403 125.889 26.971C125.084 28.539 123.929 29.746 122.423 30.5919C120.937 31.4171 119.163 31.8298 117.1 31.8298C115.037 31.8298 113.252 31.4171 111.746 30.5919C110.24 29.746 109.084 28.539 108.28 26.971C107.475 25.403 107.073 23.5152 107.073 21.3076C107.073 19.1 107.475 17.2122 108.28 15.6442C109.084 14.0762 110.24 12.8795 111.746 12.0543C113.252 11.2084 115.037 10.7854 117.1 10.7854ZM117.1 14.9633C116.11 14.9633 115.274 15.2006 114.593 15.6751C113.912 16.1497 113.396 16.8614 113.046 17.8105C112.695 18.7389 112.52 19.9046 112.52 21.3076C112.52 22.6899 112.695 23.8556 113.046 24.8047C113.396 25.7537 113.912 26.4655 114.593 26.94C115.274 27.4146 116.11 27.6518 117.1 27.6518C118.09 27.6518 118.915 27.4146 119.576 26.94C120.257 26.4655 120.772 25.7537 121.123 24.8047C121.474 23.8556 121.649 22.6899 121.649 21.3076C121.649 19.9046 121.474 18.7389 121.123 17.8105C120.772 16.8614 120.257 16.1497 119.576 15.6751C118.915 15.2006 118.09 14.9633 117.1 14.9633Z" fill="white"/>
<path d="M148.906 11.0949L141.664 31.5203H135.412L128.14 11.0949H133.741L137.486 23.443L138.6 27.4662L139.683 23.5049L143.49 11.0949H148.906Z" fill="white"/>
<path d="M161.087 11.0949C163.522 11.0949 165.409 11.6726 166.75 12.8279C168.112 13.9627 168.793 15.4791 168.793 17.3772C168.793 19.461 168.122 21.0497 166.781 22.1432C165.44 23.2367 163.553 23.7834 161.118 23.7834L160.623 24.0619H156.569V31.5203H151.339V11.0949H161.087ZM160.344 20.2863C161.376 20.2863 162.15 20.08 162.665 19.6674C163.181 19.2547 163.439 18.5945 163.439 17.6867C163.439 16.7996 163.181 16.1497 162.665 15.737C162.15 15.3244 161.376 15.1181 160.344 15.1181H156.569V20.2863H160.344ZM163.47 21.4004L170 31.5203H164.12L158.89 22.5764L163.47 21.4004Z" fill="white"/>
<defs>
<linearGradient id="paint0_linear_816_370" x1="21.3661" y1="0.613037" x2="21.3661" y2="41.3867" gradientUnits="userSpaceOnUse">
<stop stop-color="#ED1E79"/>
<stop offset="1" stop-color="#FBB03B"/>
</linearGradient>
</defs>
</svg>
