<svg width="24" height="22" viewBox="0 0 24 22" fill="none" xmlns="http://www.w3.org/2000/svg">
<path fill-rule="evenodd" clip-rule="evenodd" d="M19.6 17.7729V4.32314H4.4V17.7729H19.6ZM2.1 19.9825V20.8952C2.1 21.5054 2.61487 22 3.25 22C3.88513 22 4.4 21.5054 4.4 20.8952V19.9825H19.6H21.9V17.7729V4.32314H22.85C23.4851 4.32314 24 3.82851 24 3.21834C24 2.60817 23.4851 2.11354 22.85 2.11354H21.9V1.1048C21.9 0.494637 21.3851 0 20.75 0C20.1149 0 19.6 0.494637 19.6 1.1048V2.11354H4.4H2.1V4.32314V17.7729H1.15C0.514873 17.7729 0 18.2676 0 18.8777C0 19.4879 0.514872 19.9825 1.15 19.9825H2.1ZM5.1 4.99563H13.2V10.6638H5.1V4.99563ZM18.9 11.4323H10.8V17.1004H18.9V11.4323ZM13.9 4.99563H18.9V10.6638H13.9V4.99563ZM10.1 11.4323H5.1V17.1004H10.1V11.4323Z" fill="white"/>
</svg>
